<svg xmlns="http://www.w3.org/2000/svg" xmlns:xlink="http://www.w3.org/1999/xlink" id="uuid-a2a0b591-9ccc-4929-8f1d-6169cc77c4f5" viewBox="0 0 1280 720"><defs><clipPath id="uuid-236ec1b4-cd2a-4808-98fe-4fbc23090d8e"><rect width="1280" height="720" y="0" fill="none"/></clipPath><linearGradient id="uuid-90a32f78-f604-41fa-be47-cd1ebe2bda8b" x1="758" x2="758" y1="624.96" y2="424.96" gradientTransform="translate(0 719.46) scale(1 -1)" gradientUnits="userSpaceOnUse"><stop offset="0" stop-color="#ffdd9c"/><stop offset=".5" stop-color="#ffd78e"/><stop offset="1" stop-color="#ffd479"/></linearGradient><linearGradient id="uuid-0f16b8ba-1752-478a-ac7d-f5f45d7583c1" x1="767.5" x2="767.5" y1="294.96" y2="63.96" gradientTransform="translate(0 719.46) scale(1 -1)" gradientUnits="userSpaceOnUse"><stop offset="0" stop-color="#ffdd9c"/><stop offset=".5" stop-color="#ffd78e"/><stop offset="1" stop-color="#ffd479"/></linearGradient><linearGradient id="uuid-94fee3ec-697f-4cde-8eb4-682cebd131f5" x1="403" x2="403" y1="624.96" y2="424.96" gradientTransform="translate(0 719.46) scale(1 -1)" gradientUnits="userSpaceOnUse"><stop offset="0" stop-color="#ffdd9c"/><stop offset=".5" stop-color="#ffd78e"/><stop offset="1" stop-color="#ffd479"/></linearGradient></defs><g clip-path="url(#uuid-236ec1b4-cd2a-4808-98fe-4fbc23090d8e)"><rect width="1280" height="720" y="0" fill="#fff"/><path fill="url(#uuid-90a32f78-f604-41fa-be47-cd1ebe2bda8b)" fill-rule="evenodd" stroke="#ffc000" stroke-miterlimit="8" stroke-width=".67" d="m642.5,127.83c0-18.41,14.92-33.33,33.33-33.33h164.33c18.41,0,33.33,14.92,33.33,33.33v133.33c0,18.41-14.92,33.33-33.33,33.33h-164.33c-18.41,0-33.33-14.92-33.33-33.33V127.83Z"/><g isolation="isolate"><text font-family="ArialMT, Arial" font-size="20" isolation="isolate" transform="translate(688.38 128)"><tspan x="0" y="0">Forms as a Cloud</tspan></text><text font-family="ArialMT, Arial" font-size="20" isolation="isolate" transform="translate(691.1 152)"><tspan x="0" y="0">Service-Sandbox</tspan></text></g><path fill="#ed7d31" fill-rule="evenodd" stroke="#ffc000" stroke-miterlimit="8" stroke-width=".67" d="m665.5,173.5c0-8.84,7.16-16,16-16h152c8.84,0,16,7.16,16,16v64c0,8.84-7.16,16-16,16h-152c-8.84,0-16-7.16-16-16v-64Z"/><g isolation="isolate"><text font-family="Arial-BoldMT, Arial" font-size="13" font-weight="700" isolation="isolate" transform="translate(686.14 176.3)"><tspan x="0" y="0">Container für adaptive </tspan><tspan x="27.44" y="15.6" xml:space="preserve">Formulare V2</tspan></text></g><path fill="#4472c4" fill-rule="evenodd" stroke="#2f528f" stroke-miterlimit="8" stroke-width="1.33" d="m678.5,271c0-1.93,1.57-3.5,3.5-3.5h171c1.93,0,3.5,1.57,3.5,3.5v14c0,1.93-1.57,3.5-3.5,3.5h-171c-1.93,0-3.5-1.57-3.5-3.5v-14Z"/><text fill="#fff" font-family="ArialMT, Arial" font-size="12" isolation="isolate" transform="translate(699.79 281)"><tspan x="0" y="0">APIs abrufen und senden</tspan></text><path fill="url(#uuid-0f16b8ba-1752-478a-ac7d-f5f45d7583c1)" fill-rule="evenodd" stroke="#ffc000" stroke-miterlimit="8" stroke-width=".67" d="m649.5,463c0-21.26,17.24-38.5,38.5-38.5h159c21.26,0,38.5,17.24,38.5,38.5v154c0,21.26-17.24,38.5-38.5,38.5h-159c-21.26,0-38.5-17.24-38.5-38.5v-154Z"/><text font-family="ArialMT, Arial" font-size="20" isolation="isolate" transform="translate(684.4 459)"><tspan x="0" y="0">Frontend-React-App</tspan></text><path fill="#ed7d31" fill-rule="evenodd" stroke="#ffc000" stroke-miterlimit="8" stroke-width=".67" d="m659.5,578.17c0-7,5.67-12.67,12.67-12.67h77.67c7,0,12.67,5.67,12.67,12.67v50.67c0,7-5.67,12.67-12.67,12.67h-77.67c-7,0-12.67-5.67-12.67-12.67v-50.67Z"/><text font-family="ArialMT, Arial" font-size="16" isolation="isolate" transform="translate(674.3 589)"><tspan x="0" y="0">JavaScript</tspan></text><text font-family="ArialMT, Arial" font-size="16" isolation="isolate" transform="translate(667.41 608.9)"><tspan x="0" y="0">Bibliotheken </tspan><tspan x="15.72" y="19.2">für </tspan><tspan x="38.84" y="19.2" letter-spacing="-.02em">W</tspan><tspan x="53.65" y="19.2">eb</tspan></text><path fill="#ed7d31" fill-rule="evenodd" stroke="#ffc000" stroke-miterlimit="8" stroke-width=".67" d="m780.5,576.17c0-7,5.67-12.67,12.67-12.67h66.67c7,0,12.67,5.67,12.67,12.67v50.67c0,7-5.67,12.67-12.67,12.67h-66.67c-7,0-12.67-5.67-12.67-12.67v-50.67Z"/><g isolation="isolate"><g isolation="isolate"><path d="m803.63,578v-11.45h5.08c1.02,0,1.8.1,2.33.31s.96.57,1.27,1.09c.32.52.48,1.1.48,1.73,0,.81-.26,1.5-.79,2.05-.53.56-1.34.91-2.44,1.06.4.19.71.38.91.57.44.41.86.91,1.26,1.52l1.99,3.12h-1.91l-1.52-2.38c-.44-.69-.81-1.21-1.09-1.58-.29-.36-.54-.62-.77-.77s-.46-.25-.69-.3c-.17-.04-.45-.05-.84-.05h-1.76v5.09h-1.52Zm1.52-6.4h3.26c.69,0,1.23-.07,1.62-.21s.69-.37.89-.69.3-.66.3-1.03c0-.54-.2-.99-.59-1.34-.39-.35-1.01-.52-1.86-.52h-3.62v3.79Z"/><path d="m820.67,575.33l1.45.18c-.23.85-.65,1.51-1.27,1.98-.62.47-1.41.7-2.38.7-1.21,0-2.18-.37-2.89-1.12s-1.07-1.8-1.07-3.14.36-2.48,1.08-3.25,1.65-1.16,2.8-1.16,2.02.38,2.72,1.13,1.05,1.82,1.05,3.19c0,.08,0,.21,0,.38h-6.19c.05.91.31,1.61.77,2.09.46.48,1.04.73,1.73.73.52,0,.96-.14,1.32-.41.36-.27.65-.7.87-1.3Zm-4.62-2.27h4.63c-.06-.7-.24-1.22-.53-1.57-.45-.54-1.03-.81-1.74-.81-.65,0-1.19.22-1.63.65-.44.43-.68,1.01-.73,1.73Z"/><path d="m829.3,576.98c-.52.44-1.02.75-1.5.94-.48.18-1,.27-1.55.27-.91,0-1.61-.22-2.1-.67-.49-.45-.73-1.01-.73-1.71,0-.41.09-.78.28-1.11.18-.34.43-.61.73-.81.3-.2.64-.36,1.01-.46.28-.07.69-.14,1.25-.21,1.13-.14,1.97-.3,2.51-.48,0-.19,0-.32,0-.37,0-.57-.13-.98-.4-1.21-.36-.32-.89-.48-1.6-.48-.66,0-1.15.12-1.46.35-.32.23-.55.64-.7,1.23l-1.38-.19c.12-.59.33-1.06.62-1.43.29-.36.7-.64,1.24-.84.54-.2,1.17-.29,1.88-.29s1.28.08,1.73.25c.44.17.77.38.98.63.21.25.35.57.44.96.05.24.07.67.07,1.3v1.88c0,1.31.03,2.13.09,2.48.06.35.18.68.36,1h-1.47c-.15-.29-.24-.63-.28-1.02Zm-.12-3.14c-.51.21-1.28.39-2.3.53-.58.08-.99.18-1.23.28-.24.1-.42.26-.55.46-.13.2-.2.42-.2.67,0,.38.14.69.43.94.28.25.7.38,1.25.38s1.02-.12,1.45-.36.73-.56.93-.97c.15-.32.23-.79.23-1.41v-.52Z"/><path d="m838.2,574.96l1.38.18c-.15.95-.54,1.7-1.16,2.24-.62.54-1.39.81-2.29.81-1.14,0-2.05-.37-2.74-1.11-.69-.74-1.04-1.81-1.04-3.19,0-.9.15-1.68.45-2.35s.75-1.18,1.36-1.51c.61-.34,1.27-.5,1.98-.5.9,0,1.64.23,2.21.68.57.46.94,1.1,1.1,1.94l-1.37.21c-.13-.56-.36-.98-.69-1.26-.33-.28-.73-.42-1.2-.42-.71,0-1.28.25-1.73.76-.44.51-.66,1.31-.66,2.41s.21,1.92.64,2.43c.43.5.98.76,1.67.76.55,0,1.01-.17,1.38-.51.37-.34.6-.86.7-1.56Z"/><path d="m843.85,576.74l.2,1.24c-.4.08-.75.12-1.06.12-.51,0-.91-.08-1.19-.24s-.48-.37-.59-.64c-.12-.26-.17-.82-.17-1.66v-4.77h-1.03v-1.09h1.03v-2.05l1.4-.84v2.9h1.41v1.09h-1.41v4.85c0,.4.02.66.07.77.05.11.13.21.24.27.11.07.27.1.48.1.16,0,.36-.02.62-.05Z"/><path d="m844.68,574.56v-1.41h4.32v1.41h-4.32Z"/><path d="m793.85,597.2v-11.45h5.08c1.02,0,1.8.1,2.33.31s.96.57,1.27,1.09c.32.52.48,1.1.48,1.73,0,.81-.26,1.5-.79,2.05-.53.56-1.34.91-2.44,1.06.4.19.71.38.91.57.44.41.86.91,1.26,1.52l1.99,3.12h-1.91l-1.52-2.38c-.44-.69-.81-1.21-1.09-1.58-.29-.36-.54-.62-.77-.77s-.46-.25-.69-.3c-.17-.04-.45-.05-.84-.05h-1.76v5.09h-1.52Zm1.52-6.4h3.26c.69,0,1.23-.07,1.62-.21s.69-.37.89-.69.3-.66.3-1.03c0-.54-.2-.99-.59-1.34-.39-.35-1.01-.52-1.86-.52h-3.62v3.79Z"/><path d="m810.88,594.53l1.45.18c-.23.85-.65,1.51-1.27,1.98-.62.47-1.41.7-2.38.7-1.21,0-2.18-.37-2.89-1.12s-1.07-1.8-1.07-3.14.36-2.48,1.08-3.25,1.65-1.16,2.8-1.16,2.02.38,2.72,1.13,1.05,1.82,1.05,3.19c0,.08,0,.21,0,.38h-6.19c.05.91.31,1.61.77,2.09.46.48,1.04.73,1.73.73.52,0,.96-.14,1.32-.41.36-.27.65-.7.87-1.3Zm-4.62-2.27h4.63c-.06-.7-.24-1.22-.53-1.57-.45-.54-1.03-.81-1.74-.81-.65,0-1.19.22-1.63.65-.44.43-.68,1.01-.73,1.73Z"/><path d="m814.1,597.2v-8.3h1.27v1.18c.61-.91,1.49-1.37,2.64-1.37.5,0,.96.09,1.38.27.42.18.73.42.94.71.21.29.35.64.44,1.04.05.26.08.72.08,1.37v5.1h-1.41v-5.05c0-.57-.05-1-.16-1.29s-.3-.51-.58-.68c-.28-.17-.61-.25-.98-.25-.6,0-1.12.19-1.55.57-.44.38-.65,1.1-.65,2.16v4.53h-1.41Z"/><path d="m828.38,597.2v-1.05c-.53.82-1.3,1.23-2.32,1.23-.66,0-1.27-.18-1.82-.55s-.98-.87-1.29-1.53-.46-1.41-.46-2.25.14-1.58.41-2.25c.28-.67.69-1.19,1.24-1.55.55-.36,1.17-.54,1.85-.54.5,0,.95.11,1.34.32s.71.49.95.82v-4.11h1.4v11.45h-1.3Zm-4.45-4.14c0,1.06.22,1.86.67,2.38.45.53.98.79,1.59.79s1.14-.25,1.57-.75.64-1.27.64-2.3c0-1.14-.22-1.97-.66-2.5s-.98-.8-1.62-.8-1.15.25-1.57.77c-.42.51-.63,1.32-.63,2.41Z"/><path d="m837.57,594.53l1.45.18c-.23.85-.65,1.51-1.27,1.98-.62.47-1.41.7-2.38.7-1.21,0-2.18-.37-2.89-1.12s-1.07-1.8-1.07-3.14.36-2.48,1.08-3.25,1.65-1.16,2.8-1.16,2.02.38,2.72,1.13,1.05,1.82,1.05,3.19c0,.08,0,.21,0,.38h-6.19c.05.91.31,1.61.77,2.09.46.48,1.04.73,1.73.73.52,0,.96-.14,1.32-.41.36-.27.65-.7.87-1.3Zm-4.62-2.27h4.63c-.06-.7-.24-1.22-.53-1.57-.45-.54-1.03-.81-1.74-.81-.65,0-1.19.22-1.63.65-.44.43-.68,1.01-.73,1.73Z"/><path d="m840.78,597.2v-8.3h1.27v1.26c.32-.59.62-.98.89-1.16s.57-.28.9-.28c.47,0,.96.15,1.45.45l-.48,1.3c-.34-.2-.69-.3-1.03-.3-.31,0-.58.09-.83.28-.25.18-.42.44-.52.77-.16.5-.23,1.05-.23,1.64v4.34h-1.41Z"/><path d="m851.8,594.53l1.45.18c-.23.85-.65,1.51-1.27,1.98-.62.47-1.41.7-2.38.7-1.21,0-2.18-.37-2.89-1.12s-1.07-1.8-1.07-3.14.36-2.48,1.08-3.25,1.65-1.16,2.8-1.16,2.02.38,2.72,1.13,1.05,1.82,1.05,3.19c0,.08,0,.21,0,.38h-6.19c.05.91.31,1.61.77,2.09.46.48,1.04.73,1.73.73.52,0,.96-.14,1.32-.41.36-.27.65-.7.87-1.3Zm-4.62-2.27h4.63c-.06-.7-.24-1.22-.53-1.57-.45-.54-1.03-.81-1.74-.81-.65,0-1.19.22-1.63.65-.44.43-.68,1.01-.73,1.73Z"/><path d="m855,597.2v-8.3h1.27v1.26c.32-.59.62-.98.89-1.16s.57-.28.9-.28c.47,0,.96.15,1.45.45l-.48,1.3c-.34-.2-.69-.3-1.03-.3-.31,0-.58.09-.83.28-.25.18-.42.44-.52.77-.16.5-.23,1.05-.23,1.64v4.34h-1.41Z"/><path d="m785.53,616.4v-7.2h-1.24v-1.09h1.24v-.88c0-.56.05-.97.15-1.24.13-.36.37-.66.71-.89.34-.23.82-.34,1.43-.34.4,0,.83.05,1.31.14l-.21,1.23c-.29-.05-.57-.08-.83-.08-.43,0-.73.09-.91.27-.18.18-.27.52-.27,1.02v.77h1.62v1.09h-1.62v7.2h-1.4Z"/><path d="m795.07,616.4v-1.22c-.65.94-1.52,1.41-2.63,1.41-.49,0-.95-.09-1.37-.28-.42-.19-.74-.42-.95-.71-.21-.28-.35-.63-.43-1.04-.06-.28-.09-.71-.09-1.31v-5.14h1.41v4.6c0,.73.03,1.23.09,1.48.09.37.28.66.56.87.29.21.64.32,1.06.32s.82-.11,1.19-.32c.37-.22.63-.51.79-.88.15-.37.23-.91.23-1.62v-4.45h1.41v8.3h-1.26Zm-4.3-9.92v-1.6h1.47v1.6h-1.47Zm2.91,0v-1.6h1.47v1.6h-1.47Z"/><path d="m798.52,616.4v-8.3h1.27v1.26c.32-.59.62-.98.89-1.16s.57-.28.9-.28c.47,0,.96.15,1.45.45l-.48,1.3c-.34-.2-.69-.3-1.03-.3-.31,0-.58.09-.83.28-.25.18-.42.44-.52.77-.16.5-.23,1.05-.23,1.64v4.34h-1.41Z"/><path d="m813.72,615.38c-.52.44-1.02.75-1.5.94-.48.18-1,.27-1.55.27-.91,0-1.61-.22-2.1-.67-.49-.45-.73-1.01-.73-1.71,0-.41.09-.78.28-1.11.18-.34.43-.61.73-.81.3-.2.64-.36,1.01-.46.28-.07.69-.14,1.25-.21,1.13-.14,1.97-.3,2.51-.48,0-.19,0-.32,0-.37,0-.57-.13-.98-.4-1.21-.36-.32-.89-.48-1.6-.48-.66,0-1.15.12-1.46.35-.32.23-.55.64-.7,1.23l-1.38-.19c.12-.59.33-1.06.62-1.43.29-.36.7-.64,1.24-.84.54-.2,1.17-.29,1.88-.29s1.28.08,1.73.25c.44.17.77.38.98.63.21.25.35.57.44.96.05.24.07.67.07,1.3v1.88c0,1.31.03,2.13.09,2.48.06.35.18.68.36,1h-1.47c-.15-.29-.24-.63-.28-1.02Zm-.12-3.14c-.51.21-1.28.39-2.3.53-.58.08-.99.18-1.23.28-.24.1-.42.26-.55.46-.13.2-.2.42-.2.67,0,.38.14.69.43.94.28.25.7.38,1.25.38s1.02-.12,1.45-.36.73-.56.93-.97c.15-.32.23-.79.23-1.41v-.52Z"/><path d="m822.59,616.4v-1.05c-.53.82-1.3,1.23-2.32,1.23-.66,0-1.27-.18-1.82-.55s-.98-.87-1.29-1.53-.46-1.41-.46-2.25.14-1.58.41-2.25c.28-.67.69-1.19,1.24-1.55.55-.36,1.17-.54,1.85-.54.5,0,.95.11,1.34.32s.71.49.95.82v-4.11h1.4v11.45h-1.3Zm-4.45-4.14c0,1.06.22,1.86.67,2.38.45.53.98.79,1.59.79s1.14-.25,1.57-.75.64-1.27.64-2.3c0-1.14-.22-1.97-.66-2.5s-.98-.8-1.62-.8-1.15.25-1.57.77c-.42.51-.63,1.32-.63,2.41Z"/><path d="m831.52,615.38c-.52.44-1.02.75-1.5.94-.48.18-1,.27-1.55.27-.91,0-1.61-.22-2.1-.67-.49-.45-.73-1.01-.73-1.71,0-.41.09-.78.28-1.11.18-.34.43-.61.73-.81.3-.2.64-.36,1.01-.46.28-.07.69-.14,1.25-.21,1.13-.14,1.97-.3,2.51-.48,0-.19,0-.32,0-.37,0-.57-.13-.98-.4-1.21-.36-.32-.89-.48-1.6-.48-.66,0-1.15.12-1.46.35-.32.23-.55.64-.7,1.23l-1.38-.19c.12-.59.33-1.06.62-1.43.29-.36.7-.64,1.24-.84.54-.2,1.17-.29,1.88-.29s1.28.08,1.73.25c.44.17.77.38.98.63.21.25.35.57.44.96.05.24.07.67.07,1.3v1.88c0,1.31.03,2.13.09,2.48.06.35.18.68.36,1h-1.47c-.15-.29-.24-.63-.28-1.02Zm-.12-3.14c-.51.21-1.28.39-2.3.53-.58.08-.99.18-1.23.28-.24.1-.42.26-.55.46-.13.2-.2.42-.2.67,0,.38.14.69.43.94.28.25.7.38,1.25.38s1.02-.12,1.45-.36.73-.56.93-.97c.15-.32.23-.79.23-1.41v-.52Z"/><path d="m835,619.58v-11.48h1.28v1.08c.3-.42.64-.74,1.02-.95.38-.21.84-.32,1.38-.32.71,0,1.33.18,1.88.55.54.36.95.88,1.23,1.54.28.66.41,1.39.41,2.18,0,.85-.15,1.61-.46,2.29s-.75,1.2-1.33,1.56c-.58.36-1.19.54-1.83.54-.47,0-.89-.1-1.26-.3-.37-.2-.68-.45-.92-.75v4.04h-1.41Zm1.27-7.28c0,1.07.22,1.86.65,2.37.43.51.96.77,1.57.77s1.16-.26,1.61-.79.67-1.35.67-2.46-.22-1.85-.65-2.38c-.44-.53-.96-.79-1.56-.79s-1.13.28-1.59.84-.69,1.37-.69,2.44Z"/><path d="m846.97,615.14l.2,1.24c-.4.08-.75.12-1.06.12-.51,0-.91-.08-1.19-.24s-.48-.37-.59-.64c-.12-.26-.17-.82-.17-1.66v-4.77h-1.03v-1.09h1.03v-2.05l1.4-.84v2.9h1.41v1.09h-1.41v4.85c0,.4.02.66.07.77.05.11.13.21.24.27.11.07.27.1.48.1.16,0,.36-.02.62-.05Z"/><path d="m848.35,606.56v-1.62h1.41v1.62h-1.41Zm0,9.84v-8.3h1.41v8.3h-1.41Z"/><path d="m854.21,616.4l-3.16-8.3h1.48l1.78,4.97c.19.54.37,1.09.53,1.67.12-.44.3-.96.52-1.58l1.84-5.06h1.45l-3.14,8.3h-1.31Z"/><path d="m865.58,613.73l1.45.18c-.23.85-.65,1.51-1.27,1.98-.62.47-1.41.7-2.38.7-1.21,0-2.18-.37-2.89-1.12s-1.07-1.8-1.07-3.14.36-2.48,1.08-3.25,1.65-1.16,2.8-1.16,2.02.38,2.72,1.13,1.05,1.82,1.05,3.19c0,.08,0,.21,0,.38h-6.19c.05.91.31,1.61.77,2.09.46.48,1.04.73,1.73.73.52,0,.96-.14,1.32-.41.36-.27.65-.7.87-1.3Zm-4.62-2.27h4.63c-.06-.7-.24-1.22-.53-1.57-.45-.54-1.03-.81-1.74-.81-.65,0-1.19.22-1.63.65-.44.43-.68,1.01-.73,1.73Z"/><path d="m795.25,635.6v-11.45h7.73v1.35h-6.21v3.55h5.38v1.35h-5.38v5.2h-1.52Z"/><path d="m804.24,631.45c0-1.54.43-2.67,1.28-3.41.71-.61,1.58-.92,2.61-.92,1.14,0,2.07.37,2.8,1.12.72.75,1.09,1.78,1.09,3.1,0,1.07-.16,1.91-.48,2.52s-.79,1.09-1.4,1.43c-.61.34-1.28.51-2,.51-1.16,0-2.1-.37-2.82-1.12-.72-.75-1.07-1.82-1.07-3.22Zm1.45,0c0,1.06.23,1.86.7,2.39.46.53,1.05.79,1.75.79s1.28-.27,1.74-.8c.46-.53.7-1.34.7-2.43,0-1.03-.23-1.8-.7-2.33-.47-.53-1.05-.79-1.74-.79s-1.29.26-1.75.79c-.46.53-.7,1.32-.7,2.38Z"/><path d="m813.65,635.6v-8.3h1.27v1.26c.32-.59.62-.98.89-1.16s.57-.28.9-.28c.47,0,.96.15,1.45.45l-.48,1.3c-.34-.2-.69-.3-1.03-.3-.31,0-.58.09-.83.28-.25.18-.42.44-.52.77-.16.5-.23,1.05-.23,1.64v4.34h-1.41Z"/><path d="m818.99,635.6v-8.3h1.26v1.16c.26-.41.61-.73,1.04-.98.43-.25.92-.37,1.48-.37.61,0,1.12.13,1.51.38.39.25.67.61.83,1.07.66-.97,1.51-1.45,2.56-1.45.82,0,1.46.23,1.9.68.44.46.66,1.16.66,2.11v5.7h-1.4v-5.23c0-.56-.05-.97-.14-1.21-.09-.25-.26-.45-.5-.6-.24-.15-.52-.23-.84-.23-.58,0-1.07.19-1.45.58-.39.39-.58,1.01-.58,1.86v4.82h-1.41v-5.39c0-.62-.12-1.09-.34-1.41-.23-.31-.6-.47-1.12-.47-.4,0-.76.1-1.1.31s-.58.51-.73.91c-.15.4-.23.98-.23,1.73v4.3h-1.41Z"/><path d="m837.76,635.6v-1.22c-.65.94-1.52,1.41-2.63,1.41-.49,0-.95-.09-1.37-.28-.42-.19-.74-.42-.95-.71-.21-.28-.35-.63-.43-1.04-.06-.28-.09-.71-.09-1.31v-5.14h1.41v4.6c0,.73.03,1.23.09,1.48.09.37.28.66.56.87.29.21.64.32,1.06.32s.82-.11,1.19-.32c.37-.22.63-.51.79-.88.15-.37.23-.91.23-1.62v-4.45h1.41v8.3h-1.26Z"/><path d="m841.19,635.6v-11.45h1.41v11.45h-1.41Z"/><path d="m850.19,634.58c-.52.44-1.02.75-1.5.94-.48.18-1,.27-1.55.27-.91,0-1.61-.22-2.1-.67-.49-.45-.73-1.01-.73-1.71,0-.41.09-.78.28-1.11.18-.34.43-.61.73-.81.3-.2.64-.36,1.01-.46.28-.07.69-.14,1.25-.21,1.13-.14,1.97-.3,2.51-.48,0-.19,0-.32,0-.37,0-.57-.13-.98-.4-1.21-.36-.32-.89-.48-1.6-.48-.66,0-1.15.12-1.46.35-.32.23-.55.64-.7,1.23l-1.38-.19c.12-.59.33-1.06.62-1.43.29-.36.7-.64,1.24-.84.54-.2,1.17-.29,1.88-.29s1.28.08,1.73.25c.44.17.77.38.98.63.21.25.35.57.44.96.05.24.07.67.07,1.3v1.88c0,1.31.03,2.13.09,2.48.06.35.18.68.36,1h-1.47c-.15-.29-.24-.63-.28-1.02Zm-.12-3.14c-.51.21-1.28.39-2.3.53-.58.08-.99.18-1.23.28-.24.1-.42.26-.55.46-.13.2-.2.42-.2.67,0,.38.14.69.43.94.28.25.7.38,1.25.38s1.02-.12,1.45-.36.73-.56.93-.97c.15-.32.23-.79.23-1.41v-.52Z"/><path d="m853.65,635.6v-8.3h1.27v1.26c.32-.59.62-.98.89-1.16s.57-.28.9-.28c.47,0,.96.15,1.45.45l-.48,1.3c-.34-.2-.69-.3-1.03-.3-.31,0-.58.09-.83.28-.25.18-.42.44-.52.77-.16.5-.23,1.05-.23,1.64v4.34h-1.41Z"/></g></g><path d="m710.83,299.5v114.93h-.67v-114.93h.67Zm3.67,113.6l-4,8-4-8h8Z"/><path d="m827.83,421.64v-120.47s-.67,0-.67,0v120.47s.67,0,.67,0Zm3.67-119.14l-4-8-4,8h8Z"/><path fill="#4472c4" fill-rule="evenodd" stroke="#2f528f" stroke-miterlimit="8" stroke-width="1.33" d="m643.5,355c0-1.93,1.57-3.5,3.5-3.5h112c1.93,0,3.5,1.57,3.5,3.5v14c0,1.93-1.57,3.5-3.5,3.5h-112c-1.93,0-3.5-1.57-3.5-3.5v-14Z"/><text fill="#fff" font-family="ArialMT, Arial" font-size="12" isolation="isolate" transform="translate(656.98 365)"><tspan x="0" y="0">Formular abrufen</tspan></text><path fill="#4472c4" fill-rule="evenodd" stroke="#2f528f" stroke-miterlimit="8" stroke-width="1.33" d="m780.5,352.67c0-2.3,1.87-4.17,4.17-4.17h88.67c2.3,0,4.17,1.87,4.17,4.17v16.67c0,2.3-1.86,4.17-4.17,4.17h-88.67c-2.3,0-4.17-1.86-4.17-4.17v-16.67Z"/><text fill="#fff" font-family="ArialMT, Arial" font-size="12" isolation="isolate" transform="translate(783.65 364)"><tspan x="0" y="0">Formular senden</tspan></text><path fill="url(#uuid-94fee3ec-697f-4cde-8eb4-682cebd131f5)" fill-rule="evenodd" stroke="#ffc000" stroke-miterlimit="8" stroke-width=".67" d="m287.5,127.83c0-18.41,14.92-33.33,33.33-33.33h164.33c18.41,0,33.33,14.92,33.33,33.33v133.33c0,18.41-14.92,33.33-33.33,33.33h-164.33c-18.41,0-33.33-14.92-33.33-33.33V127.83Z"/><text font-family="ArialMT, Arial" font-size="20" isolation="isolate" transform="translate(298.13 128)"><tspan x="0" y="0" letter-spacing="-.02em">V</tspan><tspan x="12.98" y="0">isual Studio Code-IDE</tspan></text><path fill="#ed7d31" fill-rule="evenodd" stroke="#ffc000" stroke-miterlimit="8" stroke-width=".67" d="m378.5,172.33c0-10.95,8.88-19.83,19.83-19.83h88.33c10.95,0,19.83,8.88,19.83,19.83v79.33c0,10.95-8.88,19.83-19.83,19.83h-88.33c-10.95,0-19.83-8.88-19.83-19.83v-79.33Z"/><g isolation="isolate"><text font-family="Arial-BoldMT, Arial" font-size="14" font-weight="700" isolation="isolate" transform="translate(387.35 185.08)"><tspan x="0" y="0">Archetyp-Projekt</tspan></text></g><path fill="#ed7d31" fill-rule="evenodd" stroke="#ffc000" stroke-miterlimit="8" stroke-width=".67" d="m296.5,193.67c0-5.06,4.1-9.17,9.17-9.17h57.67c5.06,0,9.17,4.1,9.17,9.17v36.67c0,5.06-4.1,9.17-9.17,9.17h-57.67c-5.06,0-9.17-4.1-9.17-9.17v-36.67Z"/><g isolation="isolate"><g isolation="isolate"><path d="m308.6,200v-9.31h1.23v3.82h4.84v-3.82h1.23v9.31h-1.23v-4.39h-4.84v4.39h-1.23Z"/><path d="m322.42,197.83l1.18.15c-.19.69-.53,1.23-1.03,1.61s-1.15.57-1.93.57c-.99,0-1.77-.3-2.35-.91-.58-.61-.87-1.46-.87-2.55s.29-2.01.88-2.64,1.34-.94,2.27-.94,1.64.31,2.21.92c.57.61.86,1.48.86,2.59,0,.07,0,.17,0,.3h-5.03c.04.74.25,1.31.63,1.7.38.39.85.59,1.41.59.42,0,.78-.11,1.07-.33s.53-.57.7-1.05Zm-3.75-1.85h3.76c-.05-.57-.19-.99-.43-1.28-.36-.44-.84-.66-1.42-.66-.52,0-.97.18-1.32.53-.36.35-.56.82-.59,1.41Z"/><path d="m329.44,199.17c-.42.36-.83.61-1.22.76-.39.15-.81.22-1.26.22-.74,0-1.31-.18-1.71-.54-.4-.36-.6-.82-.6-1.39,0-.33.08-.63.23-.9.15-.27.35-.49.59-.66.24-.17.52-.29.82-.37.22-.06.56-.12,1.02-.17.92-.11,1.6-.24,2.04-.39,0-.16,0-.26,0-.3,0-.47-.11-.79-.32-.98-.29-.26-.73-.39-1.3-.39-.54,0-.93.09-1.19.28-.26.19-.45.52-.57,1l-1.12-.15c.1-.48.27-.86.5-1.16s.57-.52,1.01-.68c.44-.16.95-.24,1.53-.24s1.04.07,1.4.2.62.31.79.51.29.46.36.78c.04.2.06.55.06,1.05v1.52c0,1.06.02,1.73.07,2.01.05.28.15.55.29.81h-1.19c-.12-.24-.19-.51-.23-.83Zm-.1-2.55c-.41.17-1.04.31-1.87.43-.47.07-.8.14-1,.23-.19.08-.34.21-.45.37s-.16.34-.16.54c0,.3.12.56.35.76.23.2.57.3,1.01.3s.83-.1,1.17-.29.59-.46.76-.79c.12-.26.18-.64.18-1.14v-.42Z"/><path d="m336.64,200v-.85c-.43.67-1.06,1-1.89,1-.54,0-1.03-.15-1.48-.44-.45-.3-.8-.71-1.05-1.24-.25-.53-.37-1.14-.37-1.83s.11-1.28.34-1.83.56-.97,1.01-1.26c.45-.29.95-.44,1.5-.44.41,0,.77.09,1.09.26.32.17.58.39.77.67v-3.34h1.14v9.31h-1.06Zm-3.61-3.36c0,.86.18,1.51.55,1.94.36.43.79.64,1.29.64s.92-.2,1.27-.61c.35-.41.52-1.03.52-1.87,0-.92-.18-1.6-.53-2.03s-.79-.65-1.31-.65-.93.21-1.27.62c-.34.42-.51,1.07-.51,1.96Z"/><path d="m339.47,200v-9.31h1.14v9.31h-1.14Z"/><path d="m347,197.83l1.18.15c-.19.69-.53,1.23-1.03,1.61s-1.15.57-1.93.57c-.99,0-1.77-.3-2.35-.91-.58-.61-.87-1.46-.87-2.55s.29-2.01.88-2.64,1.34-.94,2.27-.94,1.64.31,2.21.92c.57.61.86,1.48.86,2.59,0,.07,0,.17,0,.3h-5.03c.04.74.25,1.31.63,1.7.38.39.85.59,1.41.59.42,0,.78-.11,1.07-.33s.53-.57.7-1.05Zm-3.75-1.85h3.76c-.05-.57-.19-.99-.43-1.28-.36-.44-.84-.66-1.42-.66-.52,0-.97.18-1.32.53-.36.35-.56.82-.59,1.41Z"/><path d="m349.16,197.99l1.13-.18c.06.45.24.8.53,1.04.29.24.7.36,1.22.36s.91-.11,1.17-.32.38-.46.38-.75c0-.26-.11-.46-.34-.61-.16-.1-.55-.23-1.17-.39-.84-.21-1.42-.39-1.74-.55-.32-.15-.57-.37-.74-.64-.17-.27-.25-.57-.25-.9,0-.3.07-.58.21-.83.14-.26.32-.47.56-.64.18-.13.42-.24.73-.33.31-.09.64-.14.99-.14.53,0,.99.08,1.39.23.4.15.69.36.89.62.19.26.32.61.39,1.04l-1.12.15c-.05-.35-.2-.62-.44-.81-.24-.19-.59-.29-1.03-.29-.52,0-.9.09-1.12.26-.22.17-.34.38-.34.61,0,.15.05.28.14.4.09.12.24.22.44.3.11.04.45.14,1.01.29.81.22,1.37.39,1.69.53.32.14.57.34.75.6s.27.59.27.98-.11.74-.33,1.08c-.22.34-.54.6-.96.78-.42.18-.89.28-1.42.28-.88,0-1.54-.18-2-.55-.46-.36-.75-.9-.88-1.62Z"/><path d="m355.66,197.99l1.13-.18c.06.45.24.8.53,1.04.29.24.7.36,1.22.36s.91-.11,1.17-.32.38-.46.38-.75c0-.26-.11-.46-.34-.61-.16-.1-.55-.23-1.17-.39-.84-.21-1.42-.39-1.74-.55-.32-.15-.57-.37-.74-.64-.17-.27-.25-.57-.25-.9,0-.3.07-.58.21-.83.14-.26.32-.47.56-.64.18-.13.42-.24.73-.33.31-.09.64-.14.99-.14.53,0,.99.08,1.39.23.4.15.69.36.89.62.19.26.32.61.39,1.04l-1.12.15c-.05-.35-.2-.62-.44-.81-.24-.19-.59-.29-1.03-.29-.52,0-.9.09-1.12.26-.22.17-.34.38-.34.61,0,.15.05.28.14.4.09.12.24.22.44.3.11.04.45.14,1.01.29.81.22,1.37.39,1.69.53.32.14.57.34.75.6s.27.59.27.98-.11.74-.33,1.08c-.22.34-.54.6-.96.78-.42.18-.89.28-1.42.28-.88,0-1.54-.18-2-.55-.46-.36-.75-.9-.88-1.62Z"/><path d="m362.17,197.21v-1.15h3.51v1.15h-3.51Z"/><path d="m309.72,215.6v-9.31h6.28v1.1h-5.05v2.88h4.37v1.1h-4.37v4.23h-1.23Z"/><path d="m317.03,212.23c0-1.25.35-2.17,1.04-2.77.58-.5,1.29-.75,2.12-.75.93,0,1.68.3,2.27.91s.88,1.45.88,2.52c0,.87-.13,1.55-.39,2.05-.26.5-.64.88-1.14,1.16-.5.27-1.04.41-1.63.41-.94,0-1.71-.3-2.29-.91-.58-.6-.87-1.48-.87-2.62Zm1.17,0c0,.86.19,1.51.56,1.94s.85.64,1.42.64,1.04-.22,1.42-.65.56-1.09.56-1.97c0-.83-.19-1.47-.57-1.9-.38-.43-.85-.64-1.41-.64s-1.05.21-1.42.64-.56,1.07-.56,1.94Z"/><path d="m324.67,215.6v-6.74h1.03v1.02c.26-.48.5-.79.73-.95.22-.15.47-.23.73-.23.39,0,.78.12,1.17.37l-.39,1.06c-.28-.17-.56-.25-.84-.25-.25,0-.47.08-.67.23s-.34.36-.43.62c-.13.41-.19.85-.19,1.33v3.53h-1.14Z"/><path d="m329.01,215.6v-6.74h1.02v.95c.21-.33.49-.6.84-.8s.75-.3,1.2-.3c.5,0,.91.1,1.23.31.32.21.54.5.68.87.53-.79,1.23-1.18,2.08-1.18.67,0,1.18.19,1.54.56s.54.94.54,1.71v4.63h-1.14v-4.25c0-.46-.04-.79-.11-.99-.07-.2-.21-.36-.4-.49-.19-.12-.42-.18-.69-.18-.47,0-.87.16-1.18.47s-.47.82-.47,1.51v3.92h-1.14v-4.38c0-.51-.09-.89-.28-1.14s-.49-.38-.91-.38c-.32,0-.62.08-.89.25-.27.17-.47.42-.59.74-.12.33-.18.79-.18,1.41v3.5h-1.14Z"/><path d="m344.26,215.6v-.99c-.52.76-1.24,1.14-2.14,1.14-.4,0-.77-.08-1.11-.23-.34-.15-.6-.34-.77-.57-.17-.23-.28-.51-.35-.85-.05-.22-.07-.58-.07-1.07v-4.18h1.14v3.74c0,.6.02,1,.07,1.21.07.3.22.54.46.71.23.17.52.26.86.26s.66-.09.96-.26.51-.42.64-.72c.12-.3.19-.74.19-1.32v-3.61h1.14v6.74h-1.02Z"/><path d="m347.05,215.6v-9.31h1.14v9.31h-1.14Z"/><path d="m354.36,214.77c-.42.36-.83.61-1.22.76-.39.15-.81.22-1.26.22-.74,0-1.31-.18-1.71-.54-.4-.36-.6-.82-.6-1.39,0-.33.08-.63.23-.9.15-.27.35-.49.59-.66.24-.17.52-.29.82-.37.22-.06.56-.12,1.02-.17.92-.11,1.6-.24,2.04-.39,0-.16,0-.26,0-.3,0-.47-.11-.79-.32-.98-.29-.26-.73-.39-1.3-.39-.54,0-.93.09-1.19.28-.26.19-.45.52-.57,1l-1.12-.15c.1-.48.27-.86.5-1.16s.57-.52,1.01-.68c.44-.16.95-.24,1.53-.24s1.04.07,1.4.2.62.31.79.51.29.46.36.78c.04.2.06.55.06,1.05v1.52c0,1.06.02,1.73.07,2.01.05.28.15.55.29.81h-1.19c-.12-.24-.19-.51-.23-.83Zm-.1-2.55c-.41.17-1.04.31-1.87.43-.47.07-.8.14-1,.23-.19.08-.34.21-.45.37s-.16.34-.16.54c0,.3.12.56.35.76.23.2.57.3,1.01.3s.83-.1,1.17-.29.59-.46.76-.79c.12-.26.18-.64.18-1.14v-.42Z"/><path d="m357.18,215.6v-6.74h1.03v1.02c.26-.48.5-.79.73-.95.22-.15.47-.23.73-.23.39,0,.78.12,1.17.37l-.39,1.06c-.28-.17-.56-.25-.84-.25-.25,0-.47.08-.67.23s-.34.36-.43.62c-.13.41-.19.85-.19,1.33v3.53h-1.14Z"/><path d="m361.08,212.81v-1.15h3.51v1.15h-3.51Z"/><path d="m313.98,231.2v-9.31h3.51c.62,0,1.09.03,1.42.09.46.08.84.22,1.15.43s.56.51.75.9c.19.38.28.81.28,1.27,0,.79-.25,1.46-.76,2.01s-1.41.82-2.73.82h-2.39v3.78h-1.23Zm1.23-4.88h2.41c.8,0,1.36-.15,1.69-.45.33-.3.5-.71.5-1.25,0-.39-.1-.72-.3-1-.2-.28-.46-.46-.78-.55-.21-.05-.59-.08-1.15-.08h-2.38v3.33Z"/><path d="m322.48,231.2v-9.31h1.14v9.31h-1.14Z"/><path d="m329.81,231.2v-.99c-.52.76-1.24,1.14-2.14,1.14-.4,0-.77-.08-1.11-.23-.34-.15-.6-.34-.77-.57-.17-.23-.28-.51-.35-.85-.05-.22-.07-.58-.07-1.07v-4.18h1.14v3.74c0,.6.02,1,.07,1.21.07.3.22.54.46.71.23.17.52.26.86.26s.66-.09.96-.26.51-.42.64-.72c.12-.3.19-.74.19-1.32v-3.61h1.14v6.74h-1.02Z"/><path d="m332.42,231.76l1.11.17c.05.34.18.59.39.75.28.21.67.32,1.16.32.53,0,.94-.11,1.23-.32s.48-.51.58-.89c.06-.23.09-.72.08-1.47-.5.59-1.12.88-1.87.88-.93,0-1.64-.33-2.15-1s-.76-1.47-.76-2.41c0-.64.12-1.24.35-1.78s.57-.96,1.01-1.26c.44-.3.96-.44,1.56-.44.8,0,1.45.32,1.97.96v-.81h1.05v5.83c0,1.05-.11,1.79-.32,2.23-.21.44-.55.78-1.02,1.04-.46.25-1.03.38-1.71.38-.8,0-1.45-.18-1.95-.54-.5-.36-.73-.91-.72-1.63Zm.95-4.05c0,.88.18,1.53.53,1.94s.79.61,1.32.61.96-.2,1.32-.61.53-1.04.53-1.9-.18-1.45-.55-1.87c-.37-.42-.81-.63-1.32-.63s-.94.21-1.29.62c-.36.41-.53,1.03-.53,1.84Z"/><path d="m339.41,228.41v-1.15h3.51v1.15h-3.51Z"/><path d="m344.19,223.21v-1.31h1.14v1.31h-1.14Zm0,7.99v-6.74h1.14v6.74h-1.14Z"/><path d="m347.07,231.2v-6.74h1.03v.96c.5-.74,1.21-1.11,2.15-1.11.41,0,.78.07,1.12.22.34.15.6.34.76.58.17.24.29.52.36.84.04.21.06.58.06,1.11v4.14h-1.14v-4.1c0-.47-.04-.81-.13-1.04s-.25-.42-.47-.55c-.23-.14-.49-.21-.8-.21-.49,0-.91.15-1.26.46-.35.31-.53.89-.53,1.76v3.68h-1.14Z"/></g></g><path d="m519.5,208.17h115.98v.67h-115.98v-.67Zm114.65-3.67l8,4-8,4v-8Z"/><path fill="#4472c4" fill-rule="evenodd" stroke="#2f528f" stroke-miterlimit="8" stroke-width="1.33" d="m531.5,197.83c0-2.94,2.39-5.33,5.33-5.33h87.33c2.95,0,5.33,2.39,5.33,5.33v21.33c0,2.94-2.39,5.33-5.33,5.33h-87.33c-2.95,0-5.33-2.39-5.33-5.33v-21.33Z"/><g isolation="isolate"><text fill="#fff" font-family="ArialMT, Arial" font-size="13" isolation="isolate" transform="translate(543.57 204)"><tspan x="0" y="0">Erstellen und </tspan><tspan x="2.17" y="15.6">Bereitstellen</tspan></text></g><path fill="#bf9000" fill-rule="evenodd" stroke="#ffc000" stroke-miterlimit="8" stroke-width=".67" d="m383.5,210.5c0-3.87,3.13-7,7-7h42c3.87,0,7,3.13,7,7v28c0,3.87-3.13,7-7,7h-42c-3.87,0-7-3.13-7-7v-28Z"/><g isolation="isolate"><text font-family="Arial-BoldMT, Arial" font-size="11" font-weight="700" isolation="isolate" transform="translate(385.6 221)"><tspan x="0" y="0">Formular-</tspan></text><text font-family="Arial-BoldMT, Arial" font-size="11" font-weight="700" isolation="isolate" transform="translate(397.98 234)"><tspan x="0" y="0">JSON</tspan></text></g><path fill="#bf9000" fill-rule="evenodd" stroke="#ffc000" stroke-miterlimit="8" stroke-width=".67" d="m443.5,211.33c0-3.77,3.06-6.83,6.83-6.83h46.33c3.77,0,6.83,3.06,6.83,6.83v27.33c0,3.77-3.06,6.83-6.83,6.83h-46.33c-3.77,0-6.83-3.06-6.83-6.83v-27.33Z"/><g isolation="isolate"><g isolation="isolate"><path d="m452.02,222v-7.87h1.59v3.5l3.21-3.5h2.14l-2.96,3.07,3.13,4.81h-2.06l-2.16-3.7-1.29,1.32v2.38h-1.59Z"/><path d="m463.69,222v-.85c-.21.3-.48.54-.82.72-.34.18-.7.26-1.07.26s-.73-.08-1.03-.25c-.3-.17-.52-.41-.66-.71-.14-.3-.2-.73-.2-1.26v-3.61h1.51v2.62c0,.8.03,1.29.08,1.47.06.18.16.32.3.43s.33.16.56.16c.26,0,.49-.07.69-.21s.34-.32.42-.53c.08-.21.11-.72.11-1.54v-2.41h1.51v5.7h-1.4Z"/><path d="m471.84,222h-1.51v-2.91c0-.62-.03-1.01-.1-1.2s-.17-.32-.31-.42c-.14-.1-.32-.15-.52-.15-.26,0-.5.07-.7.21-.21.14-.35.33-.43.57-.08.24-.12.67-.12,1.31v2.58h-1.51v-5.7h1.4v.84c.5-.64,1.12-.97,1.88-.97.33,0,.64.06.91.18s.48.27.63.46c.14.19.24.4.29.63.06.24.08.58.08,1.02v3.54Z"/><path d="m478.6,222h-1.4v-.84c-.23.33-.51.57-.82.73-.32.16-.64.24-.96.24-.66,0-1.22-.26-1.68-.79-.47-.53-.7-1.26-.7-2.21s.23-1.7.68-2.21,1.03-.75,1.72-.75c.64,0,1.19.26,1.65.79v-2.84h1.51v7.87Zm-4.03-2.98c0,.61.08,1.05.25,1.32.24.39.58.59,1.02.59.35,0,.64-.15.89-.44.24-.29.37-.74.37-1.32,0-.66-.12-1.13-.35-1.42s-.54-.43-.91-.43-.66.14-.9.43c-.24.28-.36.71-.36,1.28Z"/><path d="m483.39,220.18l1.5.25c-.19.55-.5.97-.92,1.26-.42.29-.94.43-1.57.43-.99,0-1.73-.32-2.2-.97-.38-.52-.56-1.17-.56-1.96,0-.95.25-1.69.74-2.22s1.12-.8,1.87-.8c.85,0,1.52.28,2.01.84s.73,1.42.7,2.58h-3.78c.01.45.13.8.37,1.04s.52.37.87.37c.24,0,.44-.06.6-.19s.28-.34.37-.62Zm.09-1.53c-.01-.44-.12-.77-.34-1s-.48-.34-.78-.34c-.33,0-.6.12-.82.36s-.32.57-.32.98h2.26Z"/><path d="m491.4,222h-1.51v-2.91c0-.62-.03-1.01-.1-1.2s-.17-.32-.31-.42c-.14-.1-.32-.15-.52-.15-.26,0-.5.07-.7.21-.21.14-.35.33-.43.57-.08.24-.12.67-.12,1.31v2.58h-1.51v-5.7h1.4v.84c.5-.64,1.12-.97,1.88-.97.33,0,.64.06.91.18s.48.27.63.46c.14.19.24.4.29.63.06.24.08.58.08,1.02v3.54Z"/><path d="m492.76,219.9v-1.51h2.96v1.51h-2.96Z"/><path d="m464.06,232.31l1.54.49c-.24.86-.63,1.5-1.18,1.92-.55.42-1.25.63-2.09.63-1.05,0-1.9-.36-2.58-1.07-.67-.71-1.01-1.69-1.01-2.93,0-1.31.34-2.33,1.02-3.05.68-.72,1.57-1.09,2.67-1.09.96,0,1.75.28,2.35.85.36.34.63.82.81,1.45l-1.57.38c-.09-.41-.29-.73-.58-.97-.3-.24-.65-.35-1.08-.35-.58,0-1.06.21-1.42.63-.36.42-.54,1.1-.54,2.04,0,1,.18,1.7.54,2.13s.82.63,1.4.63c.42,0,.79-.13,1.09-.4.3-.27.52-.69.66-1.27Z"/><path d="m466.61,232.27c0-.5.12-.99.37-1.46.25-.47.6-.83,1.05-1.07.45-.25.96-.37,1.52-.37.86,0,1.57.28,2.12.84s.83,1.27.83,2.12-.28,1.58-.83,2.15c-.56.57-1.26.85-2.1.85-.52,0-1.02-.12-1.5-.35-.47-.24-.84-.58-1.08-1.04-.25-.46-.37-1.01-.37-1.67Zm1.55.08c0,.57.13,1,.4,1.3s.6.45.99.45.72-.15.99-.45c.27-.3.4-.74.4-1.31s-.13-.99-.4-1.29c-.27-.3-.6-.45-.99-.45s-.73.15-.99.45-.4.73-.4,1.3Z"/><path d="m478.91,235.2h-1.4v-.84c-.23.33-.51.57-.82.73-.32.16-.64.24-.96.24-.66,0-1.22-.26-1.68-.79-.47-.53-.7-1.26-.7-2.21s.23-1.7.68-2.21,1.03-.75,1.72-.75c.64,0,1.19.26,1.65.79v-2.84h1.51v7.87Zm-4.03-2.98c0,.61.08,1.05.25,1.32.24.39.58.59,1.02.59.35,0,.64-.15.89-.44.24-.29.37-.74.37-1.32,0-.66-.12-1.13-.35-1.42s-.54-.43-.91-.43-.66.14-.9.43c-.24.28-.36.71-.36,1.28Z"/><path d="m483.7,233.38l1.5.25c-.19.55-.5.97-.92,1.26-.42.29-.94.43-1.57.43-.99,0-1.73-.32-2.2-.97-.38-.52-.56-1.17-.56-1.96,0-.95.25-1.69.74-2.22s1.12-.8,1.87-.8c.85,0,1.52.28,2.01.84s.73,1.42.7,2.58h-3.78c.01.45.13.8.37,1.04s.52.37.87.37c.24,0,.44-.06.6-.19s.28-.34.37-.62Zm.09-1.53c-.01-.44-.12-.77-.34-1s-.48-.34-.78-.34c-.33,0-.6.12-.82.36s-.32.57-.32.98h2.26Z"/></g></g><path fill="#bf9000" fill-rule="evenodd" stroke="#ffc000" stroke-miterlimit="8" stroke-width=".67" d="m721.5,209.5c0-4.42,3.58-8,8-8h59c4.42,0,8,3.58,8,8v32c0,4.42-3.58,8-8,8h-59c-4.42,0-8-3.58-8-8v-32Z"/><g isolation="isolate"><text font-family="ArialMT, Arial" font-size="13" isolation="isolate" transform="translate(729.03 221)"><tspan x="0" y="0">Formular-</tspan></text><text font-family="ArialMT, Arial" font-size="13" isolation="isolate" transform="translate(741.91 237)"><tspan x="0" y="0">JSON</tspan></text></g><path fill="#bf9000" fill-rule="evenodd" stroke="#ffc000" stroke-miterlimit="8" stroke-width=".67" d="m717.5,495.17c0-5.34,4.33-9.67,9.67-9.67h90.67c5.34,0,9.67,4.33,9.67,9.67v38.67c0,5.34-4.33,9.67-9.67,9.67h-90.67c-5.34,0-9.67-4.33-9.67-9.67v-38.67Z"/><g isolation="isolate"><text font-family="ArialMT, Arial" font-size="16" isolation="isolate" transform="translate(728.52 509)"><tspan x="0" y="0">Gerendertes </tspan><tspan x="12.46" y="19.2">Formular</tspan></text></g><path fill="#bf9000" fill-rule="evenodd" stroke="#ffc000" stroke-miterlimit="8" stroke-width=".67" d="m387.5,346.5c0-3.87,3.13-7,7-7h42c3.87,0,7,3.13,7,7v28c0,3.87-3.13,7-7,7h-42c-3.87,0-7-3.13-7-7v-28Z"/><g isolation="isolate"><text font-family="ArialMT, Arial" font-size="12" isolation="isolate" transform="translate(389.25 358)"><tspan x="0" y="0">Formular-</tspan></text><text font-family="ArialMT, Arial" font-size="12" isolation="isolate" transform="translate(401.17 374)"><tspan x="0" y="0">JSON</tspan></text></g><path d="m443.5,360.55h114.96v-106.05l-.33.33h69.55v-.67h-69.89v106.05l.33-.33h-114.62v.67Zm182.84-102.05l8-4-8-4v8Z"/><path fill="#4472c4" fill-rule="evenodd" stroke="#2f528f" stroke-miterlimit="8" stroke-width="1.33" d="m518.5,299.83c0-2.95,2.39-5.33,5.33-5.33h87.33c2.95,0,5.33,2.39,5.33,5.33v21.33c0,2.95-2.39,5.33-5.33,5.33h-87.33c-2.95,0-5.33-2.39-5.33-5.33v-21.33Z"/><g isolation="isolate"><text fill="#fff" font-family="ArialMT, Arial" font-size="13" isolation="isolate" transform="translate(549.98 306)"><tspan x="0" y="0">Direkt </tspan><tspan x="-13.03" y="15.6">hochladen</tspan></text></g></g></svg>